<?xml version="1.0" encoding="UTF-8"?>
<svg xmlns="http://www.w3.org/2000/svg" version="1.1" viewBox="0 0 650 650">
 <g>
 <g id="_图层_2">
 <path d="M137.5,351.74c-8.54,24.96-59.26,189.32,77.01,213.16.9.16,1.65-.73,1.34-1.59l-76.09-211.58c-.38-1.07-1.89-1.06-2.26.01Z" fill="#a97b60" stroke="#662717" stroke-miterlimit="10" stroke-width="6"/>
 </g>
 <g id="_图层_1">
 <path d="M522,394c15,166-36,164-29,163,0,0-142.97,89.98-288.95.03-.03-.02-.06-.04-.09-.05-2.08-1.11-83.18-45.75-67.13-205.33.1-.96-.42-1.88-1.3-2.27-1.6-.72-4.41-2.09-7.96-4.3-19.41-12.04-61.17-48.83-50.96-138.74.18-1.59-1.29-2.86-2.83-2.43-4.9,1.36-9.98,2.77-14.77,4.1-4.76,1.32-9.52,2.64-14.28,3.95-2.29.63-3.88-2.26-2.11-3.85,14.18-12.76,28.36-25.52,42.54-38.28.23-.21.42-.46.54-.74,2.69-5.98,34.42-73.9,94.31-89.45.33-.09.63-.24.89-.47,3.64-3.21,32.12-28.49,42.42-41.75,1.23-1.59,3.77-.9,4.02,1.1.98,8.05,2.3,22.19.56,29.56-.37,1.56.94,2.99,2.52,2.75,20.4-3.14,115.55-11.99,156.72,86.77.24.57.7,1.02,1.28,1.24,11.81,4.33,136.57,54.48,173.8,252.82.34,1.82-1.54,3.25-3.2,2.43-6.32-3.12-19.68-9.98-36.8-20.25-28.09-16.86-66.31-42.94-100.2-76.82" fill="#a97b60" stroke="#662717" stroke-miterlimit="10" stroke-width="6"/>
 <path d="M137,350" fill="#a97b60" stroke="#662717" stroke-miterlimit="10" stroke-width="6"/>
 <path d="M204,557" fill="#a97b60" stroke="#662717" stroke-miterlimit="10" stroke-width="6"/>
 <path d="M47.31,207.17l34.46-20.04c.15-.09.31-.14.48-.16,4.48-.42,66.92-6.53,78.67-21.88.05-.06.09-.13.13-.2l62.25-120.61c.53-1.04,2.08-.78,2.25.37.6,4.1,1.48,10.54,1.44,13.35-.03,2.7-1.19,9.46-1.73,12.49-.14.77.48,1.45,1.26,1.4,5.54-.36,24.51-1.29,30.47,2.11,7,4,133.98,73.99,9.02,197.98-.01.01-.03.03-.05.04-1.42,1.28-67.84,60.72-126.42,39.18-30.3-11.14-54.79-40.26-60.46-69.96-.65-3.39-.95-6.26-1.1-8.25.33-9.67.67-19.33,1-29,.04-.82-1.21-2.23-2-2l-28.76,7.36c-1.36.39-2.15-1.48-.93-2.19Z" fill="#d7ab91"/>
 <path d="M142,447c-3.76-50.62,20.89-111.76,75.17-133.99,44.05-18.04,86.02-1.62,96.77,2.96.04.02.08.03.13.05,2.92.83,110.13,32.66,126.93,226.87,0,.07.02.13.04.2.48,1.77,7.38,28.1-8.95,35.87-.05.02-.1.04-.15.06-20.13,7.11-47.76,14.19-80.93,14.97-69.58,1.64-121.97-25.41-145.96-39.98-.03-.02-.05-.03-.07-.05-7.87-5.56-58.16-42.38-62.97-106.98Z" fill="#d7ab91"/>
 <g>
  <ellipse cx="152.56" cy="248.3" rx="13" ry="17" transform="translate(-101.24 105.07) rotate(-28.99)" fill="#350000"/>
  <line x1="126.83" y1="243.13" x2="152.56" y2="248.3" fill="#350000" stroke="#350000" stroke-miterlimit="10" stroke-width="6"/>
 </g>
 <g>
  <ellipse cx="248.36" cy="172.25" rx="13" ry="17" transform="translate(-53.77 163.88) rotate(-33.16)" fill="#350000"/>
  <line x1="222.32" y1="168.96" x2="248.36" y2="172.25" fill="#350000" stroke="#350000" stroke-miterlimit="10" stroke-width="6"/>
 </g>
 <g>
  <path d="M204.19,255.83c-.42-.2-.69-.63-.68-1.1.05-2.97.42-13.65,2.99-16.23s13.56-.8,16.98-.19c.59.1,1,.62.98,1.21-.12,3.86-.44,17.63.87,23.99.23,1.11-.91,1.99-1.93,1.5l-19.22-9.19Z" fill="#ba9785" stroke="#350000" stroke-miterlimit="10" stroke-width="4"/>
  <path d="M207.46,239.73c2.79,3.9,11.43,20.4,16.21,23.91.04.03,0,.09-.04.07l-18.57-8.62s-.02-.02-.02-.03v-1.7c-.04-3.51.32-7,1.05-10.43l.65-3.03c.07-.34.51-.44.72-.16Z" fill="#e6d1c4"/>
 </g>
 <line x1="115" y1="226" x2="142" y2="219" fill="none" stroke="#350000" stroke-miterlimit="10" stroke-width="6"/>
 <line x1="224" y1="124" x2="216" y2="156" fill="none" stroke="#350000" stroke-miterlimit="10" stroke-width="6"/>
 <path d="M249.5,614.5c-2.72-7.76,12.19-24.63,29-25,9.96-.22,17.04,5.33,18.04,6.14,5.11,4.14,12.22,12.98,9.96,18.86-4.85,12.57-52.73,12.19-57,0Z" fill="#e1d073" stroke="#662717" stroke-miterlimit="10" stroke-width="5"/>
 <path d="M403.31,611.51c-2.72-7.76,12.19-24.63,29-25,9.96-.22,17.04,5.33,18.04,6.14,5.11,4.14,12.22,12.98,9.96,18.86-4.85,12.57-52.73,12.19-57,0Z" fill="#e1d073" stroke="#662717" stroke-miterlimit="10" stroke-width="5"/>
 <path d="M271,593c1,1,18,21,13,28,0,0-30,3-33-7s20-21,20-21Z" fill="#f0e7b9"/>
 <path d="M425.28,590.11c1,1,18,21,13,28,0,0-30,3-33-7s20-21,20-21Z" fill="#f0e7b9"/>
 <g>
  <path d="M99.71,148.85c1.03.97,13.3,9.59,13.3,9.59l-17.08-2.47,3.78-7.12Z" fill="#6a3820"/>
  <path d="M117.99,124.22c-.03-1,5.81-6.18,5.81-6.18l7.8,25.77-13.61-19.59Z" fill="#6a3820"/>
  <path d="M146.92,97.44c.73-1.21,7.27-3.9,7.27-3.9l2.23,25.22-9.5-21.32Z" fill="#6a3820"/>
 </g>
 </g>
</g>
</svg>